G04 #@! TF.GenerationSoftware,KiCad,Pcbnew,10.0.4*
G04 #@! TF.CreationDate,2026-07-12T01:47:30+02:00*
G04 #@! TF.ProjectId,Micro_8088-RTC,4d696372-6f5f-4383-9038-382d5254432e,A*
G04 #@! TF.SameCoordinates,Original*
G04 #@! TF.FileFunction,Soldermask,Top*
G04 #@! TF.FilePolarity,Negative*
%FSLAX46Y46*%
G04 Gerber Fmt 4.6, Leading zero omitted, Abs format (unit mm)*
G04 Created by KiCad (PCBNEW 10.0.4) date 2026-07-12 01:47:30*
%MOMM*%
%LPD*%
G01*
G04 APERTURE LIST*
G04 Aperture macros list*
%AMRoundRect*
0 Rectangle with rounded corners*
0 $1 Rounding radius*
0 $2 $3 $4 $5 $6 $7 $8 $9 X,Y pos of 4 corners*
0 Add a 4 corners polygon primitive as box body*
4,1,4,$2,$3,$4,$5,$6,$7,$8,$9,$2,$3,0*
0 Add four circle primitives for the rounded corners*
1,1,$1+$1,$2,$3*
1,1,$1+$1,$4,$5*
1,1,$1+$1,$6,$7*
1,1,$1+$1,$8,$9*
0 Add four rect primitives between the rounded corners*
20,1,$1+$1,$2,$3,$4,$5,0*
20,1,$1+$1,$4,$5,$6,$7,0*
20,1,$1+$1,$6,$7,$8,$9,0*
20,1,$1+$1,$8,$9,$2,$3,0*%
G04 Aperture macros list end*
%ADD10C,1.905000*%
%ADD11RoundRect,0.254000X-0.698500X0.698500X-0.698500X-0.698500X0.698500X-0.698500X0.698500X0.698500X0*%
%ADD12RoundRect,0.254000X-0.698500X-0.698500X0.698500X-0.698500X0.698500X0.698500X-0.698500X0.698500X0*%
%ADD13C,2.506980*%
%ADD14RoundRect,0.254000X0.698500X-0.698500X0.698500X0.698500X-0.698500X0.698500X-0.698500X-0.698500X0*%
%ADD15C,4.572000*%
%ADD16C,1.879600*%
%ADD17C,4.508500*%
%ADD18RoundRect,0.254000X0.762000X0.762000X-0.762000X0.762000X-0.762000X-0.762000X0.762000X-0.762000X0*%
%ADD19C,2.032000*%
%ADD20RoundRect,0.254000X0.698500X0.698500X-0.698500X0.698500X-0.698500X-0.698500X0.698500X-0.698500X0*%
%ADD21C,2.308860*%
%ADD22C,3.007360*%
%ADD23RoundRect,0.254000X-0.889000X-3.810000X0.889000X-3.810000X0.889000X3.810000X-0.889000X3.810000X0*%
%ADD24C,1.397000*%
G04 APERTURE END LIST*
D10*
G04 #@! TO.C,C1*
X171450000Y-73025000D03*
X171450000Y-78105000D03*
G04 #@! TD*
G04 #@! TO.C,C2*
X171450000Y-52705000D03*
X171450000Y-57785000D03*
G04 #@! TD*
G04 #@! TO.C,C3*
X191770000Y-90805000D03*
X196850000Y-90805000D03*
G04 #@! TD*
G04 #@! TO.C,C4*
X90170000Y-78105000D03*
X90170000Y-83185000D03*
G04 #@! TD*
G04 #@! TO.C,C5*
X90170000Y-118745000D03*
X90170000Y-123825000D03*
G04 #@! TD*
G04 #@! TO.C,C6*
X90170000Y-98425000D03*
X90170000Y-103505000D03*
G04 #@! TD*
G04 #@! TO.C,C7*
X138430000Y-78105000D03*
X138430000Y-83185000D03*
G04 #@! TD*
G04 #@! TO.C,C8*
X138430000Y-65405000D03*
X138430000Y-70485000D03*
G04 #@! TD*
G04 #@! TO.C,C10*
X138430000Y-90805000D03*
X138430000Y-95885000D03*
G04 #@! TD*
G04 #@! TO.C,C11*
X138430000Y-103505000D03*
X138430000Y-108585000D03*
G04 #@! TD*
G04 #@! TO.C,C12*
X138430000Y-128905000D03*
X138430000Y-133985000D03*
G04 #@! TD*
G04 #@! TO.C,C13*
X138430000Y-116205000D03*
X138430000Y-121285000D03*
G04 #@! TD*
G04 #@! TO.C,C14*
X112394293Y-65405000D03*
X112394293Y-70485000D03*
G04 #@! TD*
G04 #@! TO.C,C15*
X215900000Y-103505000D03*
X215900000Y-98425000D03*
G04 #@! TD*
D11*
G04 #@! TO.C,C24*
X89535000Y-134302500D03*
D10*
X89535000Y-139382500D03*
G04 #@! TD*
D11*
G04 #@! TO.C,C19*
X170815000Y-65405000D03*
D10*
X170815000Y-70485000D03*
G04 #@! TD*
D12*
G04 #@! TO.C,C20*
X89535000Y-73660000D03*
D10*
X94615000Y-73660000D03*
G04 #@! TD*
D13*
G04 #@! TO.C,C21*
X212090000Y-123825000D03*
X217170000Y-123825000D03*
G04 #@! TD*
D10*
G04 #@! TO.C,C22*
X220980000Y-112395000D03*
X220980000Y-117475000D03*
G04 #@! TD*
G04 #@! TO.C,C23*
X84455000Y-75565000D03*
X79375000Y-75565000D03*
G04 #@! TD*
D14*
G04 #@! TO.C,D1*
X231775000Y-95885000D03*
D10*
X231775000Y-103505000D03*
G04 #@! TD*
G04 #@! TO.C,D2*
X54610000Y-51635000D03*
X54610000Y-54175000D03*
G04 #@! TD*
D15*
G04 #@! TO.C,HOLE1*
X231394000Y-84455000D03*
G04 #@! TD*
G04 #@! TO.C,HOLE2*
X231394000Y-140970000D03*
G04 #@! TD*
D16*
G04 #@! TO.C,P1*
X227584000Y-117444520D03*
X227584000Y-120045480D03*
X227584000Y-115394740D03*
X227584000Y-122095260D03*
X225092260Y-115394740D03*
X225092260Y-122095260D03*
D17*
X230583740Y-111986060D03*
X231394000Y-118745000D03*
X230583740Y-125503940D03*
G04 #@! TD*
D18*
G04 #@! TO.C,P2*
X63500000Y-64135000D03*
D19*
X60960000Y-64135000D03*
X58420000Y-64135000D03*
X55880000Y-64135000D03*
G04 #@! TD*
D18*
G04 #@! TO.C,P3*
X58480000Y-67310000D03*
D19*
X55940000Y-67310000D03*
G04 #@! TD*
D12*
G04 #@! TO.C,Q1*
X79375000Y-70905000D03*
D10*
X81915000Y-70905000D03*
X84455000Y-70905000D03*
G04 #@! TD*
G04 #@! TO.C,R1*
X78105000Y-80010000D03*
X85725000Y-80010000D03*
G04 #@! TD*
G04 #@! TO.C,R2*
X154940000Y-126365000D03*
X162560000Y-126365000D03*
G04 #@! TD*
G04 #@! TO.C,R3*
X142240000Y-126365000D03*
X149860000Y-126365000D03*
G04 #@! TD*
G04 #@! TO.C,R4*
X62230000Y-60960000D03*
X54610000Y-60960000D03*
G04 #@! TD*
G04 #@! TO.C,R5*
X89630000Y-69215000D03*
X97250000Y-69215000D03*
G04 #@! TD*
G04 #@! TO.C,R6*
X99695000Y-69215000D03*
X107315000Y-69215000D03*
G04 #@! TD*
G04 #@! TO.C,R7*
X104140000Y-95885000D03*
X96520000Y-95885000D03*
G04 #@! TD*
D20*
G04 #@! TO.C,RR1*
X221615000Y-70485000D03*
D10*
X219075000Y-70485000D03*
X216535000Y-70485000D03*
X213995000Y-70485000D03*
X211455000Y-70485000D03*
X208915000Y-70485000D03*
X206375000Y-70485000D03*
X203835000Y-70485000D03*
X201295000Y-70485000D03*
X198755000Y-70485000D03*
G04 #@! TD*
D12*
G04 #@! TO.C,RR2*
X193040000Y-136525000D03*
D10*
X195580000Y-136525000D03*
X198120000Y-136525000D03*
X200660000Y-136525000D03*
X203200000Y-136525000D03*
X205740000Y-136525000D03*
X208280000Y-136525000D03*
X210820000Y-136525000D03*
X213360000Y-136525000D03*
G04 #@! TD*
G04 #@! TO.C,SP1*
X75006200Y-75405000D03*
X68503800Y-75405000D03*
G04 #@! TD*
D21*
G04 #@! TO.C,SW1*
X63845440Y-52942370D03*
X59344560Y-52942370D03*
D22*
X58094880Y-55441730D03*
X65095120Y-55441730D03*
G04 #@! TD*
D12*
G04 #@! TO.C,U1*
X175895000Y-88265000D03*
D10*
X178435000Y-88265000D03*
X180975000Y-88265000D03*
X183515000Y-88265000D03*
X186055000Y-88265000D03*
X188595000Y-88265000D03*
X191135000Y-88265000D03*
X193675000Y-88265000D03*
X196215000Y-88265000D03*
X198755000Y-88265000D03*
X201295000Y-88265000D03*
X203835000Y-88265000D03*
X206375000Y-88265000D03*
X208915000Y-88265000D03*
X211455000Y-88265000D03*
X213995000Y-88265000D03*
X216535000Y-88265000D03*
X219075000Y-88265000D03*
X221615000Y-88265000D03*
X224155000Y-88265000D03*
X224155000Y-73025000D03*
X221615000Y-73025000D03*
X219075000Y-73025000D03*
X216535000Y-73025000D03*
X213995000Y-73025000D03*
X211455000Y-73025000D03*
X208915000Y-73025000D03*
X206375000Y-73025000D03*
X203835000Y-73025000D03*
X201295000Y-73025000D03*
X198755000Y-73025000D03*
X196215000Y-73025000D03*
X193675000Y-73025000D03*
X191135000Y-73025000D03*
X188595000Y-73025000D03*
X186055000Y-73025000D03*
X183515000Y-73025000D03*
X180975000Y-73025000D03*
X178435000Y-73025000D03*
X175895000Y-73025000D03*
G04 #@! TD*
D12*
G04 #@! TO.C,U2*
X175895000Y-67945000D03*
D10*
X178435000Y-67945000D03*
X180975000Y-67945000D03*
X183515000Y-67945000D03*
X186055000Y-67945000D03*
X188595000Y-67945000D03*
X191135000Y-67945000D03*
X193675000Y-67945000D03*
X196215000Y-67945000D03*
X198755000Y-67945000D03*
X201295000Y-67945000D03*
X203835000Y-67945000D03*
X206375000Y-67945000D03*
X208915000Y-67945000D03*
X211455000Y-67945000D03*
X213995000Y-67945000D03*
X216535000Y-67945000D03*
X219075000Y-67945000D03*
X221615000Y-67945000D03*
X224155000Y-67945000D03*
X224155000Y-52705000D03*
X221615000Y-52705000D03*
X219075000Y-52705000D03*
X216535000Y-52705000D03*
X213995000Y-52705000D03*
X211455000Y-52705000D03*
X208915000Y-52705000D03*
X206375000Y-52705000D03*
X203835000Y-52705000D03*
X201295000Y-52705000D03*
X198755000Y-52705000D03*
X196215000Y-52705000D03*
X193675000Y-52705000D03*
X191135000Y-52705000D03*
X188595000Y-52705000D03*
X186055000Y-52705000D03*
X183515000Y-52705000D03*
X180975000Y-52705000D03*
X178435000Y-52705000D03*
X175895000Y-52705000D03*
G04 #@! TD*
D14*
G04 #@! TO.C,U3*
X191770000Y-126365000D03*
D10*
X191770000Y-123825000D03*
X194310000Y-126365000D03*
X194310000Y-123825000D03*
X196850000Y-126365000D03*
X196850000Y-123825000D03*
X199390000Y-126365000D03*
X199390000Y-123825000D03*
X201930000Y-126365000D03*
X201930000Y-123825000D03*
X204470000Y-126365000D03*
X207010000Y-123825000D03*
X204470000Y-123825000D03*
X207010000Y-121285000D03*
X204470000Y-121285000D03*
X207010000Y-118745000D03*
X204470000Y-118745000D03*
X207010000Y-116205000D03*
X204470000Y-116205000D03*
X207010000Y-113665000D03*
X204470000Y-113665000D03*
X207010000Y-111125000D03*
X204470000Y-111125000D03*
X207010000Y-108585000D03*
X204470000Y-108585000D03*
X207010000Y-106045000D03*
X204470000Y-106045000D03*
X207010000Y-103505000D03*
X204470000Y-103505000D03*
X207010000Y-100965000D03*
X204470000Y-100965000D03*
X207010000Y-98425000D03*
X204470000Y-95885000D03*
X204470000Y-98425000D03*
X201930000Y-95885000D03*
X201930000Y-98425000D03*
X199390000Y-95885000D03*
X199390000Y-98425000D03*
X196850000Y-95885000D03*
X196850000Y-98425000D03*
X194310000Y-95885000D03*
X194310000Y-98425000D03*
X191770000Y-95885000D03*
X191770000Y-98425000D03*
X189230000Y-95885000D03*
X189230000Y-98425000D03*
X186690000Y-95885000D03*
X186690000Y-98425000D03*
X184150000Y-95885000D03*
X184150000Y-98425000D03*
X181610000Y-95885000D03*
X181610000Y-98425000D03*
X179070000Y-95885000D03*
X176530000Y-98425000D03*
X179070000Y-98425000D03*
X176530000Y-100965000D03*
X179070000Y-100965000D03*
X176530000Y-103505000D03*
X179070000Y-103505000D03*
X176530000Y-106045000D03*
X179070000Y-106045000D03*
X176530000Y-108585000D03*
X179070000Y-108585000D03*
X176530000Y-111125000D03*
X179070000Y-111125000D03*
X176530000Y-113665000D03*
X179070000Y-113665000D03*
X176530000Y-116205000D03*
X179070000Y-116205000D03*
X176530000Y-118745000D03*
X179070000Y-118745000D03*
X176530000Y-121285000D03*
X179070000Y-121285000D03*
X176530000Y-123825000D03*
X179070000Y-126365000D03*
X179070000Y-123825000D03*
X181610000Y-126365000D03*
X181610000Y-123825000D03*
X184150000Y-126365000D03*
X184150000Y-123825000D03*
X186690000Y-126365000D03*
X186690000Y-123825000D03*
X189230000Y-126365000D03*
X189230000Y-123825000D03*
G04 #@! TD*
D12*
G04 #@! TO.C,U5*
X93980000Y-133985000D03*
D10*
X96520000Y-133985000D03*
X99060000Y-133985000D03*
X101600000Y-133985000D03*
X104140000Y-133985000D03*
X106680000Y-133985000D03*
X109220000Y-133985000D03*
X111760000Y-133985000D03*
X114300000Y-133985000D03*
X116840000Y-133985000D03*
X119380000Y-133985000D03*
X121920000Y-133985000D03*
X124460000Y-133985000D03*
X127000000Y-133985000D03*
X129540000Y-133985000D03*
X132080000Y-133985000D03*
X132080000Y-118745000D03*
X129540000Y-118745000D03*
X127000000Y-118745000D03*
X124460000Y-118745000D03*
X121920000Y-118745000D03*
X119380000Y-118745000D03*
X116840000Y-118745000D03*
X114300000Y-118745000D03*
X111760000Y-118745000D03*
X109220000Y-118745000D03*
X106680000Y-118745000D03*
X104140000Y-118745000D03*
X101600000Y-118745000D03*
X99060000Y-118745000D03*
X96520000Y-118745000D03*
X93980000Y-118745000D03*
G04 #@! TD*
D12*
G04 #@! TO.C,U6*
X93980000Y-113665000D03*
D10*
X96520000Y-113665000D03*
X99060000Y-113665000D03*
X101600000Y-113665000D03*
X104140000Y-113665000D03*
X106680000Y-113665000D03*
X109220000Y-113665000D03*
X111760000Y-113665000D03*
X114300000Y-113665000D03*
X116840000Y-113665000D03*
X119380000Y-113665000D03*
X121920000Y-113665000D03*
X124460000Y-113665000D03*
X127000000Y-113665000D03*
X129540000Y-113665000D03*
X132080000Y-113665000D03*
X132080000Y-98425000D03*
X129540000Y-98425000D03*
X127000000Y-98425000D03*
X124460000Y-98425000D03*
X121920000Y-98425000D03*
X119380000Y-98425000D03*
X116840000Y-98425000D03*
X114300000Y-98425000D03*
X111760000Y-98425000D03*
X109220000Y-98425000D03*
X106680000Y-98425000D03*
X104140000Y-98425000D03*
X101600000Y-98425000D03*
X99060000Y-98425000D03*
X96520000Y-98425000D03*
X93980000Y-98425000D03*
G04 #@! TD*
D12*
G04 #@! TO.C,U7*
X142240000Y-85725000D03*
D10*
X144780000Y-85725000D03*
X147320000Y-85725000D03*
X149860000Y-85725000D03*
X152400000Y-85725000D03*
X154940000Y-85725000D03*
X157480000Y-85725000D03*
X160020000Y-85725000D03*
X162560000Y-85725000D03*
X165100000Y-85725000D03*
X165100000Y-78105000D03*
X162560000Y-78105000D03*
X160020000Y-78105000D03*
X157480000Y-78105000D03*
X154940000Y-78105000D03*
X152400000Y-78105000D03*
X149860000Y-78105000D03*
X147320000Y-78105000D03*
X144780000Y-78105000D03*
X142240000Y-78105000D03*
G04 #@! TD*
D12*
G04 #@! TO.C,U8*
X142240000Y-73025000D03*
D10*
X144780000Y-73025000D03*
X147320000Y-73025000D03*
X149860000Y-73025000D03*
X152400000Y-73025000D03*
X154940000Y-73025000D03*
X157480000Y-73025000D03*
X160020000Y-73025000D03*
X162560000Y-73025000D03*
X165100000Y-73025000D03*
X165100000Y-65405000D03*
X162560000Y-65405000D03*
X160020000Y-65405000D03*
X157480000Y-65405000D03*
X154940000Y-65405000D03*
X152400000Y-65405000D03*
X149860000Y-65405000D03*
X147320000Y-65405000D03*
X144780000Y-65405000D03*
X142240000Y-65405000D03*
G04 #@! TD*
D12*
G04 #@! TO.C,U10*
X142240000Y-98425000D03*
D10*
X144780000Y-98425000D03*
X147320000Y-98425000D03*
X149860000Y-98425000D03*
X152400000Y-98425000D03*
X154940000Y-98425000D03*
X157480000Y-98425000D03*
X160020000Y-98425000D03*
X162560000Y-98425000D03*
X165100000Y-98425000D03*
X165100000Y-90805000D03*
X162560000Y-90805000D03*
X160020000Y-90805000D03*
X157480000Y-90805000D03*
X154940000Y-90805000D03*
X152400000Y-90805000D03*
X149860000Y-90805000D03*
X147320000Y-90805000D03*
X144780000Y-90805000D03*
X142240000Y-90805000D03*
G04 #@! TD*
D12*
G04 #@! TO.C,U11*
X142240866Y-111125499D03*
D10*
X144780866Y-111125499D03*
X147320866Y-111125499D03*
X149860866Y-111125499D03*
X152400866Y-111125499D03*
X154940866Y-111125499D03*
X157480866Y-111125499D03*
X160020866Y-111125499D03*
X162560866Y-111125499D03*
X165100866Y-111125499D03*
X165100866Y-103505499D03*
X162560866Y-103505499D03*
X160020866Y-103505499D03*
X157480866Y-103505499D03*
X154940866Y-103505499D03*
X152400866Y-103505499D03*
X149860866Y-103505499D03*
X147320866Y-103505499D03*
X144780866Y-103505499D03*
X142240866Y-103505499D03*
G04 #@! TD*
D12*
G04 #@! TO.C,U12*
X142240000Y-136525000D03*
D10*
X144780000Y-136525000D03*
X147320000Y-136525000D03*
X149860000Y-136525000D03*
X152400000Y-136525000D03*
X154940000Y-136525000D03*
X157480000Y-136525000D03*
X160020000Y-136525000D03*
X162560000Y-136525000D03*
X165100000Y-136525000D03*
X165100000Y-128905000D03*
X162560000Y-128905000D03*
X160020000Y-128905000D03*
X157480000Y-128905000D03*
X154940000Y-128905000D03*
X152400000Y-128905000D03*
X149860000Y-128905000D03*
X147320000Y-128905000D03*
X144780000Y-128905000D03*
X142240000Y-128905000D03*
G04 #@! TD*
D12*
G04 #@! TO.C,U13*
X142240000Y-123825000D03*
D10*
X144780000Y-123825000D03*
X147320000Y-123825000D03*
X149860000Y-123825000D03*
X152400000Y-123825000D03*
X154940000Y-123825000D03*
X157480000Y-123825000D03*
X160020000Y-123825000D03*
X162560000Y-123825000D03*
X165100000Y-123825000D03*
X165100000Y-116205000D03*
X162560000Y-116205000D03*
X160020000Y-116205000D03*
X157480000Y-116205000D03*
X154940000Y-116205000D03*
X152400000Y-116205000D03*
X149860000Y-116205000D03*
X147320000Y-116205000D03*
X144780000Y-116205000D03*
X142240000Y-116205000D03*
G04 #@! TD*
D12*
G04 #@! TO.C,U14*
X116840000Y-73025000D03*
D10*
X119380000Y-73025000D03*
X121920000Y-73025000D03*
X124460000Y-73025000D03*
X127000000Y-73025000D03*
X129540000Y-73025000D03*
X132080000Y-73025000D03*
X132080000Y-65405000D03*
X129540000Y-65405000D03*
X127000000Y-65405000D03*
X124460000Y-65405000D03*
X121920000Y-65405000D03*
X119380000Y-65405000D03*
X116840000Y-65405000D03*
G04 #@! TD*
D12*
G04 #@! TO.C,U15*
X219075000Y-103505000D03*
D10*
X221615000Y-103505000D03*
X224155000Y-103505000D03*
X226695000Y-103505000D03*
X226695000Y-95885000D03*
X224155000Y-95885000D03*
X221615000Y-95885000D03*
X219075000Y-95885000D03*
G04 #@! TD*
G04 #@! TO.C,X1*
X213360000Y-116105940D03*
X213360000Y-111224060D03*
G04 #@! TD*
G04 #@! TO.C,C25*
X191770000Y-131445000D03*
X196850000Y-131445000D03*
G04 #@! TD*
D20*
G04 #@! TO.C,RR3*
X190500000Y-136525000D03*
D10*
X187960000Y-136525000D03*
X185420000Y-136525000D03*
X182880000Y-136525000D03*
X180340000Y-136525000D03*
X177800000Y-136525000D03*
G04 #@! TD*
D12*
G04 #@! TO.C,RR4*
X219075000Y-106045000D03*
D10*
X221615000Y-106045000D03*
X224155000Y-106045000D03*
X226695000Y-106045000D03*
X229235000Y-106045000D03*
X231775000Y-106045000D03*
G04 #@! TD*
G04 #@! TO.C,C9*
X138430000Y-52705000D03*
X138430000Y-57785000D03*
G04 #@! TD*
D12*
G04 #@! TO.C,U9*
X142240000Y-60325000D03*
D10*
X144780000Y-60325000D03*
X147320000Y-60325000D03*
X149860000Y-60325000D03*
X152400000Y-60325000D03*
X154940000Y-60325000D03*
X157480000Y-60325000D03*
X160020000Y-60325000D03*
X162560000Y-60325000D03*
X165100000Y-60325000D03*
X165100000Y-52705000D03*
X162560000Y-52705000D03*
X160020000Y-52705000D03*
X157480000Y-52705000D03*
X154940000Y-52705000D03*
X152400000Y-52705000D03*
X149860000Y-52705000D03*
X147320000Y-52705000D03*
X144780000Y-52705000D03*
X142240000Y-52705000D03*
G04 #@! TD*
D12*
G04 #@! TO.C,U16*
X109220000Y-60325000D03*
D10*
X111760000Y-60325000D03*
X114300000Y-60325000D03*
X116840000Y-60325000D03*
X119380000Y-60325000D03*
X121920000Y-60325000D03*
X124460000Y-60325000D03*
X127000000Y-60325000D03*
X129540000Y-60325000D03*
X132080000Y-60325000D03*
X132080000Y-52705000D03*
X129540000Y-52705000D03*
X127000000Y-52705000D03*
X124460000Y-52705000D03*
X121920000Y-52705000D03*
X119380000Y-52705000D03*
X116840000Y-52705000D03*
X114300000Y-52705000D03*
X111760000Y-52705000D03*
X109220000Y-52705000D03*
G04 #@! TD*
D12*
G04 #@! TO.C,RR5*
X88906170Y-63506170D03*
D10*
X91446170Y-63506170D03*
X93986170Y-63506170D03*
X96526170Y-63506170D03*
X99066170Y-63506170D03*
X101606170Y-63506170D03*
G04 #@! TD*
G04 #@! TO.C,C16*
X105410000Y-52705000D03*
X105410000Y-57785000D03*
G04 #@! TD*
G04 #@! TO.C,F1*
X224155000Y-133350000D03*
X219075000Y-133350000D03*
G04 #@! TD*
D12*
G04 #@! TO.C,SW3*
X79375000Y-60960000D03*
D10*
X81915000Y-60960000D03*
X84455000Y-60960000D03*
X84455000Y-53340000D03*
X81915000Y-53340000D03*
X79375000Y-53340000D03*
G04 #@! TD*
D12*
G04 #@! TO.C,SW4*
X89535000Y-60960000D03*
D10*
X92075000Y-60960000D03*
X94615000Y-60960000D03*
X97155000Y-60960000D03*
X99695000Y-60960000D03*
X99695000Y-53340000D03*
X97155000Y-53340000D03*
X94615000Y-53340000D03*
X92075000Y-53340000D03*
X89535000Y-53340000D03*
G04 #@! TD*
D19*
G04 #@! TO.C,JP3*
X58480000Y-76835000D03*
X55940000Y-76835000D03*
G04 #@! TD*
G04 #@! TO.C,JP2*
X55880000Y-73660000D03*
X58420000Y-73660000D03*
G04 #@! TD*
D12*
G04 #@! TO.C,U4*
X93980000Y-93345000D03*
D10*
X96520000Y-93345000D03*
X99060000Y-93345000D03*
X101600000Y-93345000D03*
X104140000Y-93345000D03*
X106680000Y-93345000D03*
X109220000Y-93345000D03*
X111760000Y-93345000D03*
X114300000Y-93345000D03*
X116840000Y-93345000D03*
X119380000Y-93345000D03*
X121920000Y-93345000D03*
X124460000Y-93345000D03*
X127000000Y-93345000D03*
X129540000Y-93345000D03*
X132080000Y-93345000D03*
X132080000Y-78105000D03*
X129540000Y-78105000D03*
X127000000Y-78105000D03*
X124460000Y-78105000D03*
X121920000Y-78105000D03*
X119380000Y-78105000D03*
X116840000Y-78105000D03*
X114300000Y-78105000D03*
X111760000Y-78105000D03*
X109220000Y-78105000D03*
X106680000Y-78105000D03*
X104140000Y-78105000D03*
X101600000Y-78105000D03*
X99060000Y-78105000D03*
X96520000Y-78105000D03*
X93980000Y-78105000D03*
G04 #@! TD*
G04 #@! TO.C,R8*
X218440000Y-111125000D03*
X218440000Y-118745000D03*
G04 #@! TD*
D19*
G04 #@! TO.C,JP1*
X58480000Y-70405000D03*
X55940000Y-70405000D03*
G04 #@! TD*
G04 #@! TO.C,JP4*
X55880000Y-80010000D03*
X58420000Y-80010000D03*
G04 #@! TD*
D23*
G04 #@! TO.C,BUS1*
X210820000Y-148907500D03*
X208280000Y-148907500D03*
X205740000Y-148907500D03*
X203200000Y-148907500D03*
X200660000Y-148907500D03*
X198120000Y-148907500D03*
X195580000Y-148907500D03*
X193040000Y-148907500D03*
X190500000Y-148907500D03*
X187960000Y-148907500D03*
X185420000Y-148907500D03*
X182880000Y-148907500D03*
X180340000Y-148907500D03*
X177800000Y-148907500D03*
X175260000Y-148907500D03*
X172720000Y-148907500D03*
X170180000Y-148907500D03*
X167640000Y-148907500D03*
X165100000Y-148907500D03*
X162560000Y-148907500D03*
X160020000Y-148907500D03*
X157480000Y-148907500D03*
X154940000Y-148907500D03*
X152400000Y-148907500D03*
X149860000Y-148907500D03*
X147320000Y-148907500D03*
X144780000Y-148907500D03*
X142240000Y-148907500D03*
X139700000Y-148907500D03*
X137160000Y-148907500D03*
X134620000Y-148907500D03*
G04 #@! TD*
D10*
G04 #@! TO.C,C18*
X53340000Y-98425000D03*
X53340000Y-103505000D03*
G04 #@! TD*
D12*
G04 #@! TO.C,U17*
X61595000Y-93345000D03*
D10*
X64135000Y-93345000D03*
X66675000Y-93345000D03*
X69215000Y-93345000D03*
X71755000Y-93345000D03*
X74295000Y-93345000D03*
X76835000Y-93345000D03*
X79375000Y-93345000D03*
X81915000Y-93345000D03*
X84455000Y-93345000D03*
X84455000Y-85725000D03*
X81915000Y-85725000D03*
X79375000Y-85725000D03*
X76835000Y-85725000D03*
X74295000Y-85725000D03*
X71755000Y-85725000D03*
X69215000Y-85725000D03*
X66675000Y-85725000D03*
X64135000Y-85725000D03*
X61595000Y-85725000D03*
G04 #@! TD*
D12*
G04 #@! TO.C,SW2*
X69215000Y-60960000D03*
D10*
X71755000Y-60960000D03*
X74295000Y-60960000D03*
X74295000Y-53340000D03*
X71755000Y-53340000D03*
X69215000Y-53340000D03*
G04 #@! TD*
D20*
G04 #@! TO.C,RR6*
X85725000Y-63500000D03*
D10*
X83185000Y-63500000D03*
X80645000Y-63500000D03*
X78105000Y-63500000D03*
X75565000Y-63500000D03*
X73025000Y-63500000D03*
G04 #@! TD*
D12*
G04 #@! TO.C,C26*
X219075000Y-138430000D03*
D10*
X224155000Y-138430000D03*
G04 #@! TD*
D19*
G04 #@! TO.C,JP5*
X58420000Y-83185000D03*
X55880000Y-83185000D03*
G04 #@! TD*
D10*
G04 #@! TO.C,C17*
X58420000Y-85725000D03*
X58420000Y-90805000D03*
G04 #@! TD*
D19*
G04 #@! TO.C,BT1*
X73025000Y-118110000D03*
X73025000Y-138109960D03*
G04 #@! TD*
D12*
G04 #@! TO.C,U18*
X56515000Y-113665000D03*
D10*
X59055000Y-113665000D03*
X61595000Y-113665000D03*
X64135000Y-113665000D03*
X66675000Y-113665000D03*
X69215000Y-113665000D03*
X71755000Y-113665000D03*
X74295000Y-113665000D03*
X76835000Y-113665000D03*
X79375000Y-113665000D03*
X81915000Y-113665000D03*
X84455000Y-113665000D03*
X84455000Y-98425000D03*
X81915000Y-98425000D03*
X79375000Y-98425000D03*
X76835000Y-98425000D03*
X74295000Y-98425000D03*
X71755000Y-98425000D03*
X69215000Y-98425000D03*
X66675000Y-98425000D03*
X64135000Y-98425000D03*
X61595000Y-98425000D03*
X59055000Y-98425000D03*
X56515000Y-98425000D03*
G04 #@! TD*
G04 #@! TO.C,X2*
X56515000Y-118013816D03*
X59055000Y-118013816D03*
X56197500Y-123093816D03*
X59372500Y-123093816D03*
G04 #@! TD*
D24*
X177800000Y-60325000D03*
X194310000Y-60325000D03*
X104140000Y-142875000D03*
X57785000Y-136525000D03*
X57785000Y-142875000D03*
X71755000Y-71755000D03*
X175895000Y-70485000D03*
X212725000Y-142875000D03*
X171450000Y-100965000D03*
X167005000Y-88265000D03*
X57785000Y-130175000D03*
X186690000Y-111125000D03*
X231140000Y-91440000D03*
X90170000Y-93345000D03*
X224790000Y-118745000D03*
X189230000Y-131445000D03*
X214630000Y-142875000D03*
X105410000Y-70485000D03*
X231140000Y-65405000D03*
X128270000Y-100965000D03*
X56515000Y-95885000D03*
X138430000Y-74930000D03*
X93980000Y-83185000D03*
X93980000Y-142875000D03*
X71755000Y-57150000D03*
X134366000Y-133985000D03*
X61595000Y-89535000D03*
X198755000Y-55245000D03*
X66929000Y-106172000D03*
X231140000Y-59055000D03*
X116840000Y-57785000D03*
X175895000Y-75565000D03*
X219075000Y-99695000D03*
X231140000Y-52705000D03*
X133985000Y-52705000D03*
X191770000Y-116840000D03*
X222885000Y-60325000D03*
X191770000Y-111125000D03*
X231140000Y-78105000D03*
X167005000Y-100965000D03*
X219075000Y-80645000D03*
X90170000Y-113665000D03*
X170180000Y-142240000D03*
X231140000Y-71755000D03*
X114300000Y-142875000D03*
X73025000Y-142875000D03*
X93980000Y-137160000D03*
X213360000Y-113665000D03*
X133539230Y-143699230D03*
X191135000Y-75565000D03*
X187960000Y-141605000D03*
X73025000Y-130175000D03*
X133350000Y-74930000D03*
X56515000Y-106045000D03*
X105410000Y-63500000D03*
X187960000Y-139700000D03*
X171450000Y-94615000D03*
X156210000Y-57785000D03*
X81915000Y-57150000D03*
X219075000Y-129540000D03*
X104140000Y-137160000D03*
X231140000Y-133350000D03*
X128905000Y-143510000D03*
X224155000Y-90170000D03*
X138790904Y-62040770D03*
X120650000Y-64324230D03*
X161110819Y-143330819D03*
X155575000Y-138747500D03*
X133922770Y-128967230D03*
X121285000Y-62230000D03*
X60325000Y-95885000D03*
X215265000Y-106045000D03*
X223837500Y-80327500D03*
X213360000Y-107950000D03*
X215900000Y-76835000D03*
X212853801Y-93955560D03*
X206946500Y-93408500D03*
X187102115Y-105855770D03*
X204089000Y-92775770D03*
X181610000Y-105410000D03*
X183515000Y-104329230D03*
X200104692Y-93170692D03*
X217805000Y-84836000D03*
X146050000Y-95885000D03*
X133858000Y-93218000D03*
X131318000Y-106559762D03*
X148590000Y-108774230D03*
X132080000Y-107760770D03*
X151130000Y-108395770D03*
X133032230Y-106395440D03*
X153670000Y-107315000D03*
X156210000Y-106680000D03*
X133032230Y-109409230D03*
X158750000Y-106045000D03*
X131634230Y-110300770D03*
X142748000Y-113475770D03*
X161290000Y-105410000D03*
X133043819Y-111558181D03*
X131634230Y-111949230D03*
X163830000Y-104775000D03*
X211900770Y-104140000D03*
X215265000Y-66040000D03*
X212725000Y-66040000D03*
X187325000Y-92710000D03*
X184785000Y-91440000D03*
X182690770Y-91629230D03*
X181610000Y-93534230D03*
X196215000Y-76835000D03*
X127000000Y-71309230D03*
X188277500Y-101282500D03*
X166687500Y-96202500D03*
X119190770Y-83058000D03*
X224472500Y-78232000D03*
X224155000Y-108585000D03*
X198120000Y-62865000D03*
X124776230Y-54965600D03*
X194945000Y-66040000D03*
X224727770Y-83486942D03*
X129921000Y-58293000D03*
X198628000Y-120015000D03*
X161290000Y-74740770D03*
X161290000Y-66485770D03*
X124460000Y-63054230D03*
X199200770Y-117475000D03*
X127000000Y-80645000D03*
X191770000Y-100965000D03*
X171450000Y-89535000D03*
X214630000Y-129540000D03*
X216535000Y-137795000D03*
X205105000Y-130810000D03*
X199835770Y-121285000D03*
X203015159Y-141789841D03*
X189420500Y-142240000D03*
X167005000Y-113665000D03*
X186311540Y-120396000D03*
X198628000Y-131127500D03*
X197295770Y-143510000D03*
X193040000Y-121920000D03*
X184785000Y-121730770D03*
X181768115Y-116236115D03*
X181993252Y-119101110D03*
X158484928Y-122289433D03*
X160020000Y-56832500D03*
X202692000Y-131127500D03*
X199644000Y-143510000D03*
X187135770Y-118745000D03*
X122936000Y-57404000D03*
X132397500Y-128967230D03*
X130873500Y-130238500D03*
X129729230Y-131687681D03*
X120650000Y-132885704D03*
X103955715Y-89724230D03*
X132969000Y-86805770D03*
X113284000Y-140462000D03*
X131572000Y-86360000D03*
X106680000Y-89535000D03*
X131634230Y-84834460D03*
X115570000Y-140462000D03*
X117380385Y-140524230D03*
X133032230Y-83635051D03*
X131634230Y-83185000D03*
X114300000Y-87630000D03*
X120015000Y-141159230D03*
X124466980Y-141794230D03*
X116840000Y-86995000D03*
X132089898Y-81563694D03*
X127635000Y-142429230D03*
X130175000Y-85725000D03*
X130810000Y-143064230D03*
X119126000Y-85598000D03*
X129985770Y-81725770D03*
X132080000Y-104902000D03*
X129540000Y-103886000D03*
X126729807Y-103329422D03*
X124460000Y-95885000D03*
X133922770Y-118745000D03*
X118745000Y-100330000D03*
X129540000Y-62040770D03*
X115570000Y-132904230D03*
X116840000Y-136335770D03*
X133922770Y-116840000D03*
X143510000Y-117920770D03*
X121920000Y-75375770D03*
X107950000Y-91440000D03*
X105410000Y-90410029D03*
X130810000Y-132904230D03*
X103040704Y-131169934D03*
X124460000Y-75184000D03*
X96520000Y-91629230D03*
X133922770Y-114935000D03*
X131890770Y-120650000D03*
X130620770Y-121920000D03*
X113665000Y-69215000D03*
X122555000Y-80010000D03*
X143510000Y-92693280D03*
X118110000Y-64324230D03*
X110172500Y-72707500D03*
X165365319Y-143244681D03*
X160825704Y-138705066D03*
X173544230Y-140462000D03*
X176922319Y-141212681D03*
X133922770Y-124270770D03*
X91440000Y-125095000D03*
X207264000Y-143510000D03*
X210097481Y-138621881D03*
X190500000Y-139192000D03*
X133922770Y-120618885D03*
X93567885Y-121697115D03*
X133922770Y-122555000D03*
X145057256Y-119657256D03*
X92710000Y-123825000D03*
X153670000Y-58420000D03*
X224727770Y-81915000D03*
X131826000Y-57404000D03*
X162560000Y-62040770D03*
X125755400Y-53848000D03*
X195580000Y-64135000D03*
X133922770Y-73025000D03*
X92075000Y-56515000D03*
X89535000Y-56515000D03*
X76835000Y-65278000D03*
G36*
X213302121Y-144800002D02*
G01*
X213348614Y-144853658D01*
X213360000Y-144906000D01*
X213360000Y-152397944D01*
X213359933Y-152402055D01*
X213357756Y-152468751D01*
X213353529Y-152497252D01*
X213318487Y-152628028D01*
X213305900Y-152658416D01*
X213239245Y-152773867D01*
X213219221Y-152799962D01*
X213124962Y-152894221D01*
X213098867Y-152914245D01*
X212983416Y-152980900D01*
X212953028Y-152993487D01*
X212822252Y-153028529D01*
X212793751Y-153032756D01*
X212727055Y-153034933D01*
X212722944Y-153035000D01*
X132717056Y-153035000D01*
X132712946Y-153034933D01*
X132646249Y-153032756D01*
X132617747Y-153028529D01*
X132486971Y-152993487D01*
X132456583Y-152980900D01*
X132341132Y-152914245D01*
X132315037Y-152894221D01*
X132220778Y-152799962D01*
X132200754Y-152773867D01*
X132134099Y-152658416D01*
X132121512Y-152628028D01*
X132086470Y-152497252D01*
X132082243Y-152468749D01*
X132080067Y-152402053D01*
X132080000Y-152397944D01*
X132080000Y-144906000D01*
X132100002Y-144837879D01*
X132153658Y-144791386D01*
X132206000Y-144780000D01*
X213234000Y-144780000D01*
X213302121Y-144800002D01*
G37*
M02*
