M48
; DRILL file KiCad 10.0.4 date 2026-07-12T01:47:30
; FORMAT={-:-/ absolute / metric / decimal}
; #@! TF.CreationDate,2026-07-12T01:47:30+02:00
; #@! TF.GenerationSoftware,Kicad,Pcbnew,10.0.4
; #@! TF.FileFunction,Plated,1,2,PTH
FMAT,2
METRIC
; #@! TA.AperFunction,Plated,PTH,ViaDrill
T1C0.635
; #@! TA.AperFunction,Plated,PTH,ComponentDrill
T2C0.813
; #@! TA.AperFunction,Plated,PTH,ComponentDrill
T3C0.889
; #@! TA.AperFunction,Plated,PTH,ComponentDrill
T4C1.001
; #@! TA.AperFunction,Plated,PTH,ComponentDrill
T5C1.016
; #@! TA.AperFunction,Plated,PTH,ComponentDrill
T6C1.300
; #@! TA.AperFunction,Plated,PTH,ComponentDrill
T7C1.501
; #@! TA.AperFunction,Plated,PTH,ComponentDrill
T8C2.291
; #@! TA.AperFunction,Plated,PTH,ComponentDrill
T9C3.048
%
G90
G05
T1
X56.515Y-95.885
X56.515Y-106.045
X57.785Y-130.175
X57.785Y-136.525
X57.785Y-142.875
X60.325Y-95.885
X61.595Y-89.535
X66.929Y-106.172
X71.755Y-57.15
X71.755Y-71.755
X73.025Y-130.175
X73.025Y-142.875
X76.835Y-65.278
X81.915Y-57.15
X89.535Y-56.515
X90.17Y-93.345
X90.17Y-113.665
X91.44Y-125.095
X92.075Y-56.515
X92.71Y-123.825
X93.568Y-121.697
X93.98Y-83.185
X93.98Y-137.16
X93.98Y-142.875
X96.52Y-91.629
X103.041Y-131.17
X103.956Y-89.724
X104.14Y-137.16
X104.14Y-142.875
X105.41Y-63.5
X105.41Y-70.485
X105.41Y-90.41
X106.68Y-89.535
X107.95Y-91.44
X110.172Y-72.707
X113.284Y-140.462
X113.665Y-69.215
X114.3Y-87.63
X114.3Y-142.875
X115.57Y-132.904
X115.57Y-140.462
X116.84Y-57.785
X116.84Y-86.995
X116.84Y-136.336
X117.38Y-140.524
X118.11Y-64.324
X118.745Y-100.33
X119.126Y-85.598
X119.191Y-83.058
X120.015Y-141.159
X120.65Y-64.324
X120.65Y-132.886
X121.285Y-62.23
X121.92Y-75.376
X122.555Y-80.01
X122.936Y-57.404
X124.46Y-63.054
X124.46Y-75.184
X124.46Y-95.885
X124.467Y-141.794
X124.776Y-54.966
X125.755Y-53.848
X126.73Y-103.329
X127.0Y-71.309
X127.0Y-80.645
X127.635Y-142.429
X128.27Y-100.965
X128.905Y-143.51
X129.54Y-62.041
X129.54Y-103.886
X129.729Y-131.688
X129.921Y-58.293
X129.986Y-81.726
X130.175Y-85.725
X130.621Y-121.92
X130.81Y-132.904
X130.81Y-143.064
X130.874Y-130.238
X131.318Y-106.56
X131.572Y-86.36
X131.634Y-83.185
X131.634Y-84.834
X131.634Y-110.301
X131.634Y-111.949
X131.826Y-57.404
X131.891Y-120.65
X132.08Y-104.902
X132.08Y-107.761
X132.09Y-81.564
X132.398Y-128.967
X132.969Y-86.806
X133.032Y-83.635
X133.032Y-106.395
X133.032Y-109.409
X133.044Y-111.558
X133.35Y-74.93
X133.539Y-143.699
X133.858Y-93.218
X133.923Y-73.025
X133.923Y-114.935
X133.923Y-116.84
X133.923Y-118.745
X133.923Y-120.619
X133.923Y-122.555
X133.923Y-124.271
X133.923Y-128.967
X133.985Y-52.705
X134.366Y-133.985
X138.43Y-74.93
X138.791Y-62.041
X142.748Y-113.476
X143.51Y-92.693
X143.51Y-117.921
X145.057Y-119.657
X146.05Y-95.885
X148.59Y-108.774
X151.13Y-108.396
X153.67Y-58.42
X153.67Y-107.315
X155.575Y-138.748
X156.21Y-57.785
X156.21Y-106.68
X158.485Y-122.289
X158.75Y-106.045
X160.02Y-56.832
X160.826Y-138.705
X161.111Y-143.331
X161.29Y-66.486
X161.29Y-74.741
X161.29Y-105.41
X162.56Y-62.041
X163.83Y-104.775
X165.365Y-143.245
X166.688Y-96.203
X167.005Y-88.265
X167.005Y-100.965
X167.005Y-113.665
X170.18Y-142.24
X171.45Y-89.535
X171.45Y-94.615
X171.45Y-100.965
X173.544Y-140.462
X175.895Y-70.485
X175.895Y-75.565
X176.922Y-141.213
X177.8Y-60.325
X181.61Y-93.534
X181.61Y-105.41
X181.768Y-116.236
X181.993Y-119.101
X182.691Y-91.629
X183.515Y-104.329
X184.785Y-91.44
X184.785Y-121.731
X186.312Y-120.396
X186.69Y-111.125
X187.102Y-105.856
X187.136Y-118.745
X187.325Y-92.71
X187.96Y-139.7
X187.96Y-141.605
X188.278Y-101.282
X189.23Y-131.445
X189.421Y-142.24
X190.5Y-139.192
X191.135Y-75.565
X191.77Y-100.965
X191.77Y-111.125
X191.77Y-116.84
X193.04Y-121.92
X194.31Y-60.325
X194.945Y-66.04
X195.58Y-64.135
X196.215Y-76.835
X197.296Y-143.51
X198.12Y-62.865
X198.628Y-120.015
X198.628Y-131.127
X198.755Y-55.245
X199.201Y-117.475
X199.644Y-143.51
X199.836Y-121.285
X200.105Y-93.171
X202.692Y-131.127
X203.015Y-141.79
X204.089Y-92.776
X205.105Y-130.81
X206.946Y-93.408
X207.264Y-143.51
X210.097Y-138.622
X211.901Y-104.14
X212.725Y-66.04
X212.725Y-142.875
X212.854Y-93.956
X213.36Y-107.95
X213.36Y-113.665
X214.63Y-129.54
X214.63Y-142.875
X215.265Y-66.04
X215.265Y-106.045
X215.9Y-76.835
X216.535Y-137.795
X217.805Y-84.836
X219.075Y-80.645
X219.075Y-99.695
X219.075Y-129.54
X222.885Y-60.325
X223.837Y-80.328
X224.155Y-90.17
X224.155Y-108.585
X224.472Y-78.232
X224.728Y-81.915
X224.728Y-83.487
X224.79Y-118.745
X231.14Y-52.705
X231.14Y-59.055
X231.14Y-65.405
X231.14Y-71.755
X231.14Y-78.105
X231.14Y-91.44
X231.14Y-133.35
T2
X53.34Y-98.425
X53.34Y-103.505
X54.61Y-51.635
X54.61Y-54.175
X54.61Y-60.96
X56.197Y-123.094
X56.515Y-98.425
X56.515Y-113.665
X56.515Y-118.014
X58.42Y-85.725
X58.42Y-90.805
X59.055Y-98.425
X59.055Y-113.665
X59.055Y-118.014
X59.372Y-123.094
X61.595Y-85.725
X61.595Y-93.345
X61.595Y-98.425
X61.595Y-113.665
X62.23Y-60.96
X64.135Y-85.725
X64.135Y-93.345
X64.135Y-98.425
X64.135Y-113.665
X66.675Y-85.725
X66.675Y-93.345
X66.675Y-98.425
X66.675Y-113.665
X68.504Y-75.405
X69.215Y-53.34
X69.215Y-60.96
X69.215Y-85.725
X69.215Y-93.345
X69.215Y-98.425
X69.215Y-113.665
X71.755Y-53.34
X71.755Y-60.96
X71.755Y-85.725
X71.755Y-93.345
X71.755Y-98.425
X71.755Y-113.665
X73.025Y-63.5
X74.295Y-53.34
X74.295Y-60.96
X74.295Y-85.725
X74.295Y-93.345
X74.295Y-98.425
X74.295Y-113.665
X75.006Y-75.405
X75.565Y-63.5
X76.835Y-85.725
X76.835Y-93.345
X76.835Y-98.425
X76.835Y-113.665
X78.105Y-63.5
X78.105Y-80.01
X79.375Y-53.34
X79.375Y-60.96
X79.375Y-70.905
X79.375Y-75.565
X79.375Y-85.725
X79.375Y-93.345
X79.375Y-98.425
X79.375Y-113.665
X80.645Y-63.5
X81.915Y-53.34
X81.915Y-60.96
X81.915Y-70.905
X81.915Y-85.725
X81.915Y-93.345
X81.915Y-98.425
X81.915Y-113.665
X83.185Y-63.5
X84.455Y-53.34
X84.455Y-60.96
X84.455Y-70.905
X84.455Y-75.565
X84.455Y-85.725
X84.455Y-93.345
X84.455Y-98.425
X84.455Y-113.665
X85.725Y-63.5
X85.725Y-80.01
X88.906Y-63.506
X89.535Y-53.34
X89.535Y-60.96
X89.535Y-73.66
X89.535Y-134.302
X89.535Y-139.382
X89.63Y-69.215
X90.17Y-78.105
X90.17Y-83.185
X90.17Y-98.425
X90.17Y-103.505
X90.17Y-118.745
X90.17Y-123.825
X91.446Y-63.506
X92.075Y-53.34
X92.075Y-60.96
X93.98Y-78.105
X93.98Y-93.345
X93.98Y-98.425
X93.98Y-113.665
X93.98Y-118.745
X93.98Y-133.985
X93.986Y-63.506
X94.615Y-53.34
X94.615Y-60.96
X94.615Y-73.66
X96.52Y-78.105
X96.52Y-93.345
X96.52Y-95.885
X96.52Y-98.425
X96.52Y-113.665
X96.52Y-118.745
X96.52Y-133.985
X96.526Y-63.506
X97.155Y-53.34
X97.155Y-60.96
X97.25Y-69.215
X99.06Y-78.105
X99.06Y-93.345
X99.06Y-98.425
X99.06Y-113.665
X99.06Y-118.745
X99.06Y-133.985
X99.066Y-63.506
X99.695Y-53.34
X99.695Y-60.96
X99.695Y-69.215
X101.6Y-78.105
X101.6Y-93.345
X101.6Y-98.425
X101.6Y-113.665
X101.6Y-118.745
X101.6Y-133.985
X101.606Y-63.506
X104.14Y-78.105
X104.14Y-93.345
X104.14Y-95.885
X104.14Y-98.425
X104.14Y-113.665
X104.14Y-118.745
X104.14Y-133.985
X105.41Y-52.705
X105.41Y-57.785
X106.68Y-78.105
X106.68Y-93.345
X106.68Y-98.425
X106.68Y-113.665
X106.68Y-118.745
X106.68Y-133.985
X107.315Y-69.215
X109.22Y-52.705
X109.22Y-60.325
X109.22Y-78.105
X109.22Y-93.345
X109.22Y-98.425
X109.22Y-113.665
X109.22Y-118.745
X109.22Y-133.985
X111.76Y-52.705
X111.76Y-60.325
X111.76Y-78.105
X111.76Y-93.345
X111.76Y-98.425
X111.76Y-113.665
X111.76Y-118.745
X111.76Y-133.985
X112.394Y-65.405
X112.394Y-70.485
X114.3Y-52.705
X114.3Y-60.325
X114.3Y-78.105
X114.3Y-93.345
X114.3Y-98.425
X114.3Y-113.665
X114.3Y-118.745
X114.3Y-133.985
X116.84Y-52.705
X116.84Y-60.325
X116.84Y-65.405
X116.84Y-73.025
X116.84Y-78.105
X116.84Y-93.345
X116.84Y-98.425
X116.84Y-113.665
X116.84Y-118.745
X116.84Y-133.985
X119.38Y-52.705
X119.38Y-60.325
X119.38Y-65.405
X119.38Y-73.025
X119.38Y-78.105
X119.38Y-93.345
X119.38Y-98.425
X119.38Y-113.665
X119.38Y-118.745
X119.38Y-133.985
X121.92Y-52.705
X121.92Y-60.325
X121.92Y-65.405
X121.92Y-73.025
X121.92Y-78.105
X121.92Y-93.345
X121.92Y-98.425
X121.92Y-113.665
X121.92Y-118.745
X121.92Y-133.985
X124.46Y-52.705
X124.46Y-60.325
X124.46Y-65.405
X124.46Y-73.025
X124.46Y-78.105
X124.46Y-93.345
X124.46Y-98.425
X124.46Y-113.665
X124.46Y-118.745
X124.46Y-133.985
X127.0Y-52.705
X127.0Y-60.325
X127.0Y-65.405
X127.0Y-73.025
X127.0Y-78.105
X127.0Y-93.345
X127.0Y-98.425
X127.0Y-113.665
X127.0Y-118.745
X127.0Y-133.985
X129.54Y-52.705
X129.54Y-60.325
X129.54Y-65.405
X129.54Y-73.025
X129.54Y-78.105
X129.54Y-93.345
X129.54Y-98.425
X129.54Y-113.665
X129.54Y-118.745
X129.54Y-133.985
X132.08Y-52.705
X132.08Y-60.325
X132.08Y-65.405
X132.08Y-73.025
X132.08Y-78.105
X132.08Y-93.345
X132.08Y-98.425
X132.08Y-113.665
X132.08Y-118.745
X132.08Y-133.985
X138.43Y-52.705
X138.43Y-57.785
X138.43Y-65.405
X138.43Y-70.485
X138.43Y-78.105
X138.43Y-83.185
X138.43Y-90.805
X138.43Y-95.885
X138.43Y-103.505
X138.43Y-108.585
X138.43Y-116.205
X138.43Y-121.285
X138.43Y-128.905
X138.43Y-133.985
X142.24Y-52.705
X142.24Y-60.325
X142.24Y-65.405
X142.24Y-73.025
X142.24Y-78.105
X142.24Y-85.725
X142.24Y-90.805
X142.24Y-98.425
X142.24Y-116.205
X142.24Y-123.825
X142.24Y-126.365
X142.24Y-128.905
X142.24Y-136.525
X142.241Y-103.505
X142.241Y-111.125
X144.78Y-52.705
X144.78Y-60.325
X144.78Y-65.405
X144.78Y-73.025
X144.78Y-78.105
X144.78Y-85.725
X144.78Y-90.805
X144.78Y-98.425
X144.78Y-116.205
X144.78Y-123.825
X144.78Y-128.905
X144.78Y-136.525
X144.781Y-103.505
X144.781Y-111.125
X147.32Y-52.705
X147.32Y-60.325
X147.32Y-65.405
X147.32Y-73.025
X147.32Y-78.105
X147.32Y-85.725
X147.32Y-90.805
X147.32Y-98.425
X147.32Y-116.205
X147.32Y-123.825
X147.32Y-128.905
X147.32Y-136.525
X147.321Y-103.505
X147.321Y-111.125
X149.86Y-52.705
X149.86Y-60.325
X149.86Y-65.405
X149.86Y-73.025
X149.86Y-78.105
X149.86Y-85.725
X149.86Y-90.805
X149.86Y-98.425
X149.86Y-116.205
X149.86Y-123.825
X149.86Y-126.365
X149.86Y-128.905
X149.86Y-136.525
X149.861Y-103.505
X149.861Y-111.125
X152.4Y-52.705
X152.4Y-60.325
X152.4Y-65.405
X152.4Y-73.025
X152.4Y-78.105
X152.4Y-85.725
X152.4Y-90.805
X152.4Y-98.425
X152.4Y-116.205
X152.4Y-123.825
X152.4Y-128.905
X152.4Y-136.525
X152.401Y-103.505
X152.401Y-111.125
X154.94Y-52.705
X154.94Y-60.325
X154.94Y-65.405
X154.94Y-73.025
X154.94Y-78.105
X154.94Y-85.725
X154.94Y-90.805
X154.94Y-98.425
X154.94Y-116.205
X154.94Y-123.825
X154.94Y-126.365
X154.94Y-128.905
X154.94Y-136.525
X154.941Y-103.505
X154.941Y-111.125
X157.48Y-52.705
X157.48Y-60.325
X157.48Y-65.405
X157.48Y-73.025
X157.48Y-78.105
X157.48Y-85.725
X157.48Y-90.805
X157.48Y-98.425
X157.48Y-116.205
X157.48Y-123.825
X157.48Y-128.905
X157.48Y-136.525
X157.481Y-103.505
X157.481Y-111.125
X160.02Y-52.705
X160.02Y-60.325
X160.02Y-65.405
X160.02Y-73.025
X160.02Y-78.105
X160.02Y-85.725
X160.02Y-90.805
X160.02Y-98.425
X160.02Y-116.205
X160.02Y-123.825
X160.02Y-128.905
X160.02Y-136.525
X160.021Y-103.505
X160.021Y-111.125
X162.56Y-52.705
X162.56Y-60.325
X162.56Y-65.405
X162.56Y-73.025
X162.56Y-78.105
X162.56Y-85.725
X162.56Y-90.805
X162.56Y-98.425
X162.56Y-116.205
X162.56Y-123.825
X162.56Y-126.365
X162.56Y-128.905
X162.56Y-136.525
X162.561Y-103.505
X162.561Y-111.125
X165.1Y-52.705
X165.1Y-60.325
X165.1Y-65.405
X165.1Y-73.025
X165.1Y-78.105
X165.1Y-85.725
X165.1Y-90.805
X165.1Y-98.425
X165.1Y-116.205
X165.1Y-123.825
X165.1Y-128.905
X165.1Y-136.525
X165.101Y-103.505
X165.101Y-111.125
X170.815Y-65.405
X170.815Y-70.485
X171.45Y-52.705
X171.45Y-57.785
X171.45Y-73.025
X171.45Y-78.105
X175.895Y-52.705
X175.895Y-67.945
X175.895Y-73.025
X175.895Y-88.265
X176.53Y-98.425
X176.53Y-100.965
X176.53Y-103.505
X176.53Y-106.045
X176.53Y-108.585
X176.53Y-111.125
X176.53Y-113.665
X176.53Y-116.205
X176.53Y-118.745
X176.53Y-121.285
X176.53Y-123.825
X177.8Y-136.525
X178.435Y-52.705
X178.435Y-67.945
X178.435Y-73.025
X178.435Y-88.265
X179.07Y-95.885
X179.07Y-98.425
X179.07Y-100.965
X179.07Y-103.505
X179.07Y-106.045
X179.07Y-108.585
X179.07Y-111.125
X179.07Y-113.665
X179.07Y-116.205
X179.07Y-118.745
X179.07Y-121.285
X179.07Y-123.825
X179.07Y-126.365
X180.34Y-136.525
X180.975Y-52.705
X180.975Y-67.945
X180.975Y-73.025
X180.975Y-88.265
X181.61Y-95.885
X181.61Y-98.425
X181.61Y-123.825
X181.61Y-126.365
X182.88Y-136.525
X183.515Y-52.705
X183.515Y-67.945
X183.515Y-73.025
X183.515Y-88.265
X184.15Y-95.885
X184.15Y-98.425
X184.15Y-123.825
X184.15Y-126.365
X185.42Y-136.525
X186.055Y-52.705
X186.055Y-67.945
X186.055Y-73.025
X186.055Y-88.265
X186.69Y-95.885
X186.69Y-98.425
X186.69Y-123.825
X186.69Y-126.365
X187.96Y-136.525
X188.595Y-52.705
X188.595Y-67.945
X188.595Y-73.025
X188.595Y-88.265
X189.23Y-95.885
X189.23Y-98.425
X189.23Y-123.825
X189.23Y-126.365
X190.5Y-136.525
X191.135Y-52.705
X191.135Y-67.945
X191.135Y-73.025
X191.135Y-88.265
X191.77Y-90.805
X191.77Y-95.885
X191.77Y-98.425
X191.77Y-123.825
X191.77Y-126.365
X191.77Y-131.445
X193.04Y-136.525
X193.675Y-52.705
X193.675Y-67.945
X193.675Y-73.025
X193.675Y-88.265
X194.31Y-95.885
X194.31Y-98.425
X194.31Y-123.825
X194.31Y-126.365
X195.58Y-136.525
X196.215Y-52.705
X196.215Y-67.945
X196.215Y-73.025
X196.215Y-88.265
X196.85Y-90.805
X196.85Y-95.885
X196.85Y-98.425
X196.85Y-123.825
X196.85Y-126.365
X196.85Y-131.445
X198.12Y-136.525
X198.755Y-52.705
X198.755Y-67.945
X198.755Y-70.485
X198.755Y-73.025
X198.755Y-88.265
X199.39Y-95.885
X199.39Y-98.425
X199.39Y-123.825
X199.39Y-126.365
X200.66Y-136.525
X201.295Y-52.705
X201.295Y-67.945
X201.295Y-70.485
X201.295Y-73.025
X201.295Y-88.265
X201.93Y-95.885
X201.93Y-98.425
X201.93Y-123.825
X201.93Y-126.365
X203.2Y-136.525
X203.835Y-52.705
X203.835Y-67.945
X203.835Y-70.485
X203.835Y-73.025
X203.835Y-88.265
X204.47Y-95.885
X204.47Y-98.425
X204.47Y-100.965
X204.47Y-103.505
X204.47Y-106.045
X204.47Y-108.585
X204.47Y-111.125
X204.47Y-113.665
X204.47Y-116.205
X204.47Y-118.745
X204.47Y-121.285
X204.47Y-123.825
X204.47Y-126.365
X205.74Y-136.525
X206.375Y-52.705
X206.375Y-67.945
X206.375Y-70.485
X206.375Y-73.025
X206.375Y-88.265
X207.01Y-98.425
X207.01Y-100.965
X207.01Y-103.505
X207.01Y-106.045
X207.01Y-108.585
X207.01Y-111.125
X207.01Y-113.665
X207.01Y-116.205
X207.01Y-118.745
X207.01Y-121.285
X207.01Y-123.825
X208.28Y-136.525
X208.915Y-52.705
X208.915Y-67.945
X208.915Y-70.485
X208.915Y-73.025
X208.915Y-88.265
X210.82Y-136.525
X211.455Y-52.705
X211.455Y-67.945
X211.455Y-70.485
X211.455Y-73.025
X211.455Y-88.265
X213.36Y-111.224
X213.36Y-116.106
X213.36Y-136.525
X213.995Y-52.705
X213.995Y-67.945
X213.995Y-70.485
X213.995Y-73.025
X213.995Y-88.265
X215.9Y-98.425
X215.9Y-103.505
X216.535Y-52.705
X216.535Y-67.945
X216.535Y-70.485
X216.535Y-73.025
X216.535Y-88.265
X218.44Y-111.125
X218.44Y-118.745
X219.075Y-52.705
X219.075Y-67.945
X219.075Y-70.485
X219.075Y-73.025
X219.075Y-88.265
X219.075Y-95.885
X219.075Y-103.505
X219.075Y-106.045
X219.075Y-133.35
X219.075Y-138.43
X220.98Y-112.395
X220.98Y-117.475
X221.615Y-52.705
X221.615Y-67.945
X221.615Y-70.485
X221.615Y-73.025
X221.615Y-88.265
X221.615Y-95.885
X221.615Y-103.505
X221.615Y-106.045
X224.155Y-52.705
X224.155Y-67.945
X224.155Y-73.025
X224.155Y-88.265
X224.155Y-95.885
X224.155Y-103.505
X224.155Y-106.045
X224.155Y-133.35
X224.155Y-138.43
X226.695Y-95.885
X226.695Y-103.505
X226.695Y-106.045
X229.235Y-106.045
X231.775Y-95.885
X231.775Y-103.505
X231.775Y-106.045
T3
X225.092Y-115.395
X225.092Y-122.095
X227.584Y-115.395
X227.584Y-117.445
X227.584Y-120.045
X227.584Y-122.095
T4
X59.345Y-52.942
X63.845Y-52.942
T5
X55.88Y-64.135
X55.88Y-73.66
X55.88Y-80.01
X55.88Y-83.185
X55.94Y-67.31
X55.94Y-70.405
X55.94Y-76.835
X58.42Y-64.135
X58.42Y-73.66
X58.42Y-80.01
X58.42Y-83.185
X58.48Y-67.31
X58.48Y-70.405
X58.48Y-76.835
X60.96Y-64.135
X63.5Y-64.135
X73.025Y-118.11
X73.025Y-138.11
T6
X212.09Y-123.825
X217.17Y-123.825
T7
X58.095Y-55.442
X65.095Y-55.442
T8
X230.584Y-111.986
X230.584Y-125.504
X231.394Y-118.745
T9
X231.394Y-84.455
X231.394Y-140.97
M30
